  0
SECTION
  2
HEADER
  9
$ACADVER
  1
AC1009
  9
$ACADMAINTVER
 70
     6
  9
$DWGCODEPAGE
  3
ANSI_1252
  9
$INSBASE
 10
0.0
 20
0.0
 30
0.0
  9
$EXTMIN
 10
-24
 20
-24
 30
-24
  9
$EXTMAX
 10
50
 20
24
 30
24
  9
$LIMMIN
 10
0.0
 20
0.0
  9
$LIMMAX
 10
12.0
 20
9.0
  9
$ORTHOMODE
 70
     0
  9
$REGENMODE
 70
     1
  9
$FILLMODE
 70
     1
  9
$QTEXTMODE
 70
     0
  9
$MIRRTEXT
 70
     1
  9
$LTSCALE
 40
1
  9
$ATTMODE
 70
     1
  9
$TEXTSIZE
 40
0.2
  9
$TRACEWID
 40
0.05
  9
$TEXTSTYLE
  7
STANDARD
  9
$CLAYER
  8
0
  9
$CELTYPE
  6
CONTINUOUS
  9
$CECOLOR
 62
   256
  9
$CELTSCALE
 40
1.0
  9
$DISPSILH
 70
     0
  9
$DIMSCALE
 40
3.229813999999999
  9
$DIMASZ
 40
0.09
  9
$DIMEXO
 40
0.03125
  9
$DIMDLI
 40
0.38
  9
$DIMRND
 40
0.0
  9
$DIMDLE
 40
0.0
  9
$DIMEXE
 40
0.05
  9
$DIMTP
 40
0.0
  9
$DIMTM
 40
0.0
  9
$DIMTXT
 40
0.1
  9
$DIMCEN
 40
0.09
  9
$DIMTSZ
 40
0.0
  9
$DIMTOL
 70
     0
  9
$DIMLIM
 70
     0
  9
$DIMTIH
 70
     1
  9
$DIMTOH
 70
     1
  9
$DIMSE1
 70
     0
  9
$DIMSE2
 70
     0
  9
$DIMTAD
 70
     0
  9
$DIMZIN
 70
     8
  9
$DIMBLK
  1

  9
$DIMASO
 70
     1
  9
$DIMSHO
 70
     1
  9
$DIMPOST
  1

  9
$DIMAPOST
  1

  9
$DIMALT
 70
     0
  9
$DIMALTD
 70
     2
  9
$DIMALTF
 40
25.4
  9
$DIMLFAC
 40
1.0
  9
$DIMTOFL
 70
     0
  9
$DIMTVP
 40
0.0
  9
$DIMTIX
 70
     0
  9
$DIMSOXD
 70
     0
  9
$DIMSAH
 70
     0
  9
$DIMBLK1
  1

  9
$DIMBLK2
  1

  9
$DIMSTYLE
  2
STANDARD
  9
$DIMCLRD
 70
     5
  9
$DIMCLRE
 70
     5
  9
$DIMCLRT
 70
     7
  9
$DIMTFAC
 40
1.0
  9
$DIMGAP
 40
0.09
  9
$DIMJUST
 70
     0
  9
$DIMSD1
 70
     0
  9
$DIMSD2
 70
     0
  9
$DIMTOLJ
 70
     1
  9
$DIMTZIN
 70
     0
  9
$DIMALTZ
 70
     0
  9
$DIMALTTZ
 70
     0
  9
$DIMUPT
 70
     0
  9
$DIMDEC
 70
     3
  9
$DIMTDEC
 70
     4
  9
$DIMALTU
 70
     2
  9
$DIMALTTD
 70
     2
  9
$DIMTXSTY
  7
STANDARD
  9
$DIMAUNIT
 70
     0
  9
$DIMADEC
 70
     0
  9
$DIMALTRND
 40
0.0
  9
$DIMAZIN
 70
     0
  9
$DIMDSEP
 70
    46
  9
$DIMATFIT
 70
     3
  9
$DIMFRAC
 70
     0
  9
$DIMLDRBLK
  1

  9
$DIMLUNIT
 70
     2
  9
$DIMLWD
 70
    -2
  9
$DIMLWE
 70
    -2
  9
$DIMTMOVE
 70
     0
  9
$LUNITS
 70
     2
  9
$LUPREC
 70
     4
  9
$SKETCHINC
 40
0.1
  9
$FILLETRAD
 40
0.0
  9
$AUNITS
 70
     0
  9
$AUPREC
 70
     0
  9
$MENU
  1
.
  9
$ELEVATION
 40
0.0
  9
$PELEVATION
 40
0.0
  9
$THICKNESS
 40
0.0
  9
$LIMCHECK
 70
     0
  9
$CHAMFERA
 40
0.0
  9
$CHAMFERB
 40
0.0
  9
$CHAMFERC
 40
0.0
  9
$CHAMFERD
 40
0.0
  9
$SKPOLY
 70
     0
  9
$TDCREATE
 40
2452514.408270833
  9
$TDUCREATE
 40
2452514.574937500
  9
$TDUPDATE
 40
2452514.408283680
  9
$TDUUPDATE
 40
2452514.574950347
  9
$TDINDWG
 40
0.0000130208
  9
$TDUSRTIMER
 40
0.0000130208
  9
$USRTIMER
 70
     1
  9
$ANGBASE
 50
0.0
  9
$ANGDIR
 70
     0
  9
$PDMODE
 70
     0
  9
$PDSIZE
 40
0.0
  9
$PLINEWID
 40
0.0
  9
$SPLFRAME
 70
     0
  9
$SPLINETYPE
 70
     6
  9
$SPLINESEGS
 70
     8
  9
$SURFTAB1
 70
     6
  9
$SURFTAB2
 70
     6
  9
$SURFTYPE
 70
     6
  9
$SURFU
 70
     6
  9
$SURFV
 70
     6
  9
$UCSBASE
  2

  9
$UCSNAME
  2

  9
$UCSORG
 10
0.0
 20
0.0
 30
0.0
  9
$UCSXDIR
 10
1.0
 20
0.0
 30
0.0
  9
$UCSYDIR
 10
0.0
 20
1.0
 30
0.0
  9
$UCSORTHOREF
  2

  9
$UCSORTHOVIEW
 70
     0
  9
$UCSORGTOP
 10
0.0
 20
0.0
 30
0.0
  9
$UCSORGBOTTOM
 10
0.0
 20
0.0
 30
0.0
  9
$UCSORGLEFT
 10
0.0
 20
0.0
 30
0.0
  9
$UCSORGRIGHT
 10
0.0
 20
0.0
 30
0.0
  9
$UCSORGFRONT
 10
0.0
 20
0.0
 30
0.0
  9
$UCSORGBACK
 10
0.0
 20
0.0
 30
0.0
  9
$PUCSBASE
  2

  9
$PUCSNAME
  2

  9
$PUCSORG
 10
0.0
 20
0.0
 30
0.0
  9
$PUCSXDIR
 10
1.0
 20
0.0
 30
0.0
  9
$PUCSYDIR
 10
0.0
 20
1.0
 30
0.0
  9
$PUCSORTHOREF
  2

  9
$PUCSORTHOVIEW
 70
     0
  9
$PUCSORGTOP
 10
0.0
 20
0.0
 30
0.0
  9
$PUCSORGBOTTOM
 10
0.0
 20
0.0
 30
0.0
  9
$PUCSORGLEFT
 10
0.0
 20
0.0
 30
0.0
  9
$PUCSORGRIGHT
 10
0.0
 20
0.0
 30
0.0
  9
$PUCSORGFRONT
 10
0.0
 20
0.0
 30
0.0
  9
$PUCSORGBACK
 10
0.0
 20
0.0
 30
0.0
  9
$USERI1
 70
     0
  9
$USERI2
 70
     0
  9
$USERI3
 70
     0
  9
$USERI4
 70
     0
  9
$USERI5
 70
     0
  9
$USERR1
 40
0.0
  9
$USERR2
 40
0.0
  9
$USERR3
 40
0.0
  9
$USERR4
 40
0.0
  9
$USERR5
 40
0.0
  9
$WORLDVIEW
 70
     1
  9
$SHADEDGE
 70
     3
  9
$SHADEDIF
 70
    70
  9
$TILEMODE
 70
     1
  9
$MAXACTVP
 70
    64
  9
$PINSBASE
 10
0.0
 20
0.0
 30
0.0
  9
$PLIMCHECK
 70
     0
  9
$PEXTMIN
 10
1.000000000000000E+20
 20
1.000000000000000E+20
 30
1.000000000000000E+20
  9
$PEXTMAX
 10
-1.000000000000000E+20
 20
-1.000000000000000E+20
 30
-1.000000000000000E+20
  9
$PLIMMIN
 10
0.0
 20
0.0
  9
$PLIMMAX
 10
12.0
 20
9.0
  9
$UNITMODE
 70
     0
  9
$VISRETAIN
 70
     1
  9
$PLINEGEN
 70
     0
  9
$PSLTSCALE
 70
     1
  9
$TREEDEPTH
 70
  3020
  9
$CMLSTYLE
  2
STANDARD
  9
$CMLJUST
 70
     0
  9
$CMLSCALE
 40
1.0
  9
$PROXYGRAPHICS
 70
     1
  9
$MEASUREMENT
 70
     0
  9
$CELWEIGHT
370
    -1
  9
$ENDCAPS
280
     0
  9
$JOINSTYLE
280
     0
  9
$LWDISPLAY
290
     0
  9
$INSUNITS
 70
     0
  9
$HYPERLINKBASE
  1

  9
$STYLESHEET
  1

  9
$XEDIT
290
     1
  9
$CEPSNTYPE
380
     0
  9
$PSTYLEMODE
290
     1
  9
$EXTNAMES
290
     1
  9
$PSVPSCALE
 40
0.0
  9
$OLESTARTUP
290
     0
  0
ENDSEC
  0
SECTION
2
TABLES
  0
TABLE
  2
VPORT
 70
     2
  0
VPORT
  2
*Active
 70
     0
 10
0.0
 20
0.0
 11
1.0
 21
1.0
 12
13
 22
0.0
 13
0.0
 23
0.0
 14
1.0
 24
1.0
 15
0.0
 25
0.0
 16
0.0
 26
0.0
 36
1.0
 17
0.0
 27
0.0
 37
0.0
 40
50
 41
2.0
 42
0.0
 43
0.0
 44
0.0
 50
0.0
 51
0.0
 71
     0
 72
  1000
 73
     1
 74
     2
 75
     0
 76
     0
 77
     0
 78
     0
  0
ENDTAB
  0
TABLE
  2
LTYPE
 70
    25
  0
LTYPE
  2
CONTINUOUS
  70
    0
  3
Solid line
  72
    65
  73
    0
  40
 0.0
  0
LTYPE
  2
BORDER
  70
     0
  3

  72
     65
  73
     6
  40
1.75
  49
0.5
  49
-0.25
  49
0.5
  49
-0.25
  49
0.0
  49
-0.25
  0
LTYPE
  2
BORDER2
  70
     0
  3

  72
     65
  73
     6
  40
0.875
  49
0.25
  49
-0.125
  49
0.25
  49
-0.125
  49
0.0
  49
-0.125
  0
LTYPE
  2
BORDERX2
  70
     0
  3

  72
     65
  73
     6
  40
3.5
  49
1
  49
-0.5
  49
1
  49
-0.5
  49
0.0
  49
-0.5
  0
LTYPE
  2
CENTER
  70
     0
  3

  72
     65
  73
     4
  40
2
  49
1.25
  49
-0.25
  49
0.25
  49
-0.25
  0
LTYPE
  2
CENTER2
  70
     0
  3

  72
     65
  73
     4
  40
1.125
  49
0.75
  49
-0.125
  49
0.125
  49
-0.125
  0
LTYPE
  2
CENTERX2
  70
     0
  3

  72
     65
  73
     4
  40
4
  49
2.5
  49
-0.5
  49
0.5
  49
-0.5
  0
LTYPE
  2
DASHDOT
  70
     0
  3

  72
     65
  73
     4
  40
1
  49
0.5
  49
-0.25
  49
0.0
  49
-0.25
  0
LTYPE
  2
DASHDOT2
  70
     0
  3

  72
     65
  73
     4
  40
0.5
  49
0.25
  49
-0.125
  49
0.0
  49
-0.125
  0
LTYPE
  2
DASHDOTX2
  70
     0
  3

  72
     65
  73
     4
  40
2
  49
1
  49
-0.5
  49
0.0
  49
-0.5
  0
LTYPE
  2
DASHED
  70
     0
  3

  72
     65
  73
     2
  40
0.75
  49
0.5
  49
-0.25
  0
LTYPE
  2
DASHED2
  70
     0
  3

  72
     65
  73
     2
  40
0.375
  49
0.25
  49
-0.125
  0
LTYPE
  2
DASHEDX2
  70
     0
  3

  72
     65
  73
     2
  40
1.5
  49
1
  49
-0.5
  0
LTYPE
  2
DIVIDE
  70
     0
  3

  72
     65
  73
     6
  40
1.25
  49
0.5
  49
-0.25
  49
0.0
  49
-0.25
  49
0.0
  49
-0.25
  0
LTYPE
  2
DIVIDE2
  70
     0
  3

  72
     65
  73
     6
  40
0.625
  49
0.25
  49
-0.125
  49
0.0
  49
-0.125
  49
0.0
  49
-0.125
  0
LTYPE
  2
DIVIDEX2
  70
     0
  3

  72
     65
  73
     6
  40
2.5
  49
1
  49
-0.5
  49
0.0
  49
-0.5
  49
0.0
  49
-0.5
  0
LTYPE
  2
DOT
  70
     0
  3

  72
     65
  73
     2
  40
0.25
  49
0.0
  49
-0.25
  0
LTYPE
  2
DOT2
  70
     0
  3

  72
     65
  73
     2
  40
0.125
  49
0.0
  49
-0.125
  0
LTYPE
  2
DOTX2
  70
     0
  3

  72
     65
  73
     2
  40
0.5
  49
0.0
  49
-0.5
  0
LTYPE
  2
HIDDEN
  70
     0
  3

  72
     65
  73
     2
  40
0.375
  49
0.25
  49
-0.125
  0
LTYPE
  2
HIDDEN2
  70
     0
  3

  72
     65
  73
     2
  40
0.1875
  49
0.125
  49
-0.0625
  0
LTYPE
  2
HIDDENX2
  70
     0
  3

  72
     65
  73
     2
  40
0.75
  49
0.5
  49
-0.25
  0
LTYPE
  2
PHANTOM
  70
     0
  3

  72
     65
  73
     6
  40
2.5
  49
1.25
  49
-0.25
  49
0.25
  49
-0.25
  49
0.25
  49
-0.25
  0
LTYPE
  2
PHANTOM2
  70
     0
  3

  72
     65
  73
     6
  40
1.25
  49
0.625
  49
-0.125
  49
0.125
  49
-0.125
  49
0.125
  49
-0.125
  0
LTYPE
  2
PHANTOMX2
  70
     0
  3

  72
     65
  73
     6
  40
5
  49
2.5
  49
-0.5
  49
0.5
  49
-0.5
  49
0.5
  49
-0.5
  0
ENDTAB
  0
TABLE
  2
STYLE
 70
    2
  0
STYLE
  2
FONT1
  70
    64
  40
 0.0
  41
 1.0
  50
 0.0
  71
    0
  42
 0.2
  3
Arial
  4

  0
STYLE
  2
FONT2
  70
    64
  40
 0.0
  41
 1.0
  50
 0.0
  71
    0
  42
 0.2
  3
Times New Roman
  4

  0
ENDTAB
  0
TABLE
  2
LAYER
 70
    0
  0
LAYER
  2
0
  70
   0
  62
255
  6
CONTINUOUS
  0
ENDTAB
  0
ENDSEC
  0
SECTION
  2
BLOCKS
  0
BLOCK
  2
TEST
  3
TEST
  70
    0
  10
0.0
  20
0.0
  30
0.0
  0
LINE
  8
0
 62
1
  6
DASHDOT
  10
10
  20
20
  30
0.0
  11
11
  21
2.4
  31
0.0
  0
LINE
  8
0
 62
1
  6
DASHDOT
  10
12
  20
10
  30
0.0
  11
2.3
  21
12
  31
0.0
  0
ENDBLK
  0
ENDSEC
  0
SECTION
  2
ENTITIES
  0
LINE
  8
0
 62
2
  6
CONTINUOUS
  10
0.0
  20
20
  30
0.0
  11
11
  21
22.4
  31
0.0
  0
LINE
  8
0
 62
2
  6
CONTINUOUS
  10
10
  20
20
  30
0.0
  11
11
  21
22.4
  31
0.0
  0
LINE
  8
0
 62
2
  6
CONTINUOUS
  10
20
  20
20
  30
0.0
  11
11
  21
22.4
  31
0.0
  0
LINE
  8
0
 62
2
  6
CONTINUOUS
  10
30
  20
20
  30
0.0
  11
11
  21
22.4
  31
0.0
  0
LINE
  8
0
 62
2
  6
CONTINUOUS
  10
40
  20
20
  30
0.0
  11
11
  21
22.4
  31
0.0
  0
LINE
  8
0
 62
2
  6
CONTINUOUS
  10
50
  20
20
  30
0.0
  11
11
  21
22.4
  31
0.0
  0
LINE
  8
0
 62
2
  6
CONTINUOUS
  10
15
  20
10
  30
0.0
  11
22.3
  21
12
  31
0.0
  0
CIRCLE
  8
0
 62
255
  6
CONTINUOUS
  10
0.0
  20
0.0
  30
0.0
  40
10
  0
TEXT
  8
0
 62
255
  10
0.0
  20
0.0
  30
0.0
  40
2
  1
asdfasdfadsf
  50
45
  41
1
  7
FONT2
  0
POINT
  8
0
 62
3
  6
CONTINUOUS
  10
10
  20
10
  30
0.0
  0
POLYLINE
  8
0
 62
255
 70
    1
 66
    1
  0
VERTEX
  8
0
 62
255
  6
CONTINUOUS
  10
10
  20
10
  30
0.0
  0
VERTEX
  8
0
 62
255
  6
CONTINUOUS
  10
0.0
  20
10
  30
0.0
  0
VERTEX
  8
0
 62
255
  6
CONTINUOUS
  10
10
  20
0.0
  30
0.0
  0
VERTEX
  8
0
 62
255
  6
CONTINUOUS
  10
10
  20
10
  30
0.0
  0
SEQEND
  0
POLYLINE
  8
0
 62
255
 70
    1
 66
    1
  0
VERTEX
  8
0
 62
255
  6
CONTINUOUS
  10
10
  20
0.0
  30
0.0
  0
VERTEX
  8
0
 62
255
  6
CONTINUOUS
  10
3.09016994374949
  20
9.51056516295153
  30
0.0
  0
VERTEX
  8
0
 62
255
  6
CONTINUOUS
  10
-8.09016994374946
  20
5.87785252292475
  30
0.0
  0
VERTEX
  8
0
 62
255
  6
CONTINUOUS
  10
-8.0901699437495
  20
-5.8778525229247
  30
0.0
  0
VERTEX
  8
0
 62
255
  6
CONTINUOUS
  10
3.09016994374942
  20
-9.51056516295155
  30
0.0
  0
SEQEND
  0
POLYLINE
  8
0
 62
255
 70
    1
 66
    1
  0
VERTEX
  8
0
 62
255
  6
CONTINUOUS
  10
10
  20
0.0
  30
0.0
  0
VERTEX
  8
0
 62
255
  6
CONTINUOUS
  10
9.94334800210137
  20
0.531467428236826
  30
0.0
  0
VERTEX
  8
0
 62
255
  6
CONTINUOUS
  10
9.77403389817867
  20
1.05691311814812
  30
0.0
  0
VERTEX
  8
0
 62
255
  6
CONTINUOUS
  10
9.49397608468381
  20
1.57038356010974
  30
0.0
  0
VERTEX
  8
0
 62
255
  6
CONTINUOUS
  10
9.10634772854913
  20
2.06606092884189
  30
0.0
  0
VERTEX
  8
0
 62
255
  6
CONTINUOUS
  10
8.61554081393806
  20
2.5383290016942
  30
0.0
  0
VERTEX
  8
0
 62
255
  6
CONTINUOUS
  10
8.02711637930964
  20
2.9818367926925
  30
0.0
  0
VERTEX
  8
0
 62
255
  6
CONTINUOUS
  10
7.34774150863067
  20
3.39155918134808
  30
0.0
  0
VERTEX
  8
0
 62
255
  6
CONTINUOUS
  10
6.58511379065039
  20
3.76285384928069
  30
0.0
  0
VERTEX
  8
0
 62
255
  6
CONTINUOUS
  10
5.74787410214407
  20
4.09151387954084
  30
0.0
  0
VERTEX
  8
0
 62
255
  6
CONTINUOUS
  10
4.84550870332651
  20
4.3738154226598
  30
0.0
  0
VERTEX
  8
0
 62
255
  6
CONTINUOUS
  10
3.88824175473321
  20
4.60655988935206
  30
0.0
  0
VERTEX
  8
0
 62
255
  6
CONTINUOUS
  10
2.88691947339622
  20
4.78711019181002
  30
0.0
  0
VERTEX
  8
0
 62
255
  6
CONTINUOUS
  10
1.85288724087115
  20
4.9134206229626
  30
0.0
  0
VERTEX
  8
0
 62
255
  6
CONTINUOUS
  10
0.797861055530844
  20
4.98406003515375
  30
0.0
  0
VERTEX
  8
0
 62
255
  6
CONTINUOUS
  10
-0.266205214377733
  20
4.99822805561726
  30
0.0
  0
VERTEX
  8
0
 62
255
  6
CONTINUOUS
  10
-1.3272552728372
  20
4.95576415502003
  30
0.0
  0
VERTEX
  8
0
 62
255
  6
CONTINUOUS
  10
-2.37326699871113
  20
4.85714946632355
  30
0.0
  0
VERTEX
  8
0
 62
255
  6
CONTINUOUS
  10
-3.39238866118028
  20
4.70350133335517
  30
0.0
  0
VERTEX
  8
0
 62
255
  6
CONTINUOUS
  10
-4.37307320458853
  20
4.4965606508561
  30
0.0
  0
VERTEX
  8
0
 62
255
  6
CONTINUOUS
  10
-5.3042090811974
  20
4.23867213944836
  30
0.0
  0
VERTEX
  8
0
 62
255
  6
CONTINUOUS
  10
-6.1752461494619
  20
3.93275777901321
  30
0.0
  0
VERTEX
  8
0
 62
255
  6
CONTINUOUS
  10
-6.97631521134982
  20
3.58228370149158
  30
0.0
  0
VERTEX
  8
0
 62
255
  6
CONTINUOUS
  10
-7.69833983429904
  20
3.19122091822411
  30
0.0
  0
VERTEX
  8
0
 62
255
  6
CONTINUOUS
  10
-8.33313919082513
  20
2.76400032680597
  30
0.0
  0
VERTEX
  8
0
 62
255
  6
CONTINUOUS
  10
-8.87352075056569
  20
2.30546250724664
  30
0.0
  0
VERTEX
  8
0
 62
255
  6
CONTINUOUS
  10
-9.31336177452336
  20
1.82080287626412
  30
0.0
  0
VERTEX
  8
0
 62
255
  6
CONTINUOUS
  10
-9.64767868814514
  20
1.31551282113762
  30
0.0
  0
VERTEX
  8
0
 62
255
  6
CONTINUOUS
  10
-9.87268354721343
  20
0.795317480095374
  30
0.0
  0
VERTEX
  8
0
 62
255
  6
CONTINUOUS
  10
-9.9858269567676
  20
0.266110874210908
  30
0.0
  0
VERTEX
  8
0
 62
255
  6
CONTINUOUS
  10
-9.98582695676761
  20
-0.266110874210877
  30
0.0
  0
VERTEX
  8
0
 62
255
  6
CONTINUOUS
  10
-9.87268354721344
  20
-0.795317480095343
  30
0.0
  0
VERTEX
  8
0
 62
255
  6
CONTINUOUS
  10
-9.64767868814515
  20
-1.31551282113759
  30
0.0
  0
VERTEX
  8
0
 62
255
  6
CONTINUOUS
  10
-9.31336177452338
  20
-1.82080287626409
  30
0.0
  0
VERTEX
  8
0
 62
255
  6
CONTINUOUS
  10
-8.87352075056572
  20
-2.30546250724661
  30
0.0
  0
VERTEX
  8
0
 62
255
  6
CONTINUOUS
  10
-8.33313919082516
  20
-2.76400032680595
  30
0.0
  0
VERTEX
  8
0
 62
255
  6
CONTINUOUS
  10
-7.69833983429907
  20
-3.19122091822408
  30
0.0
  0
VERTEX
  8
0
 62
255
  6
CONTINUOUS
  10
-6.97631521134986
  20
-3.58228370149156
  30
0.0
  0
VERTEX
  8
0
 62
255
  6
CONTINUOUS
  10
-6.17524614946194
  20
-3.93275777901319
  30
0.0
  0
VERTEX
  8
0
 62
255
  6
CONTINUOUS
  10
-5.30420908119745
  20
-4.23867213944834
  30
0.0
  0
VERTEX
  8
0
 62
255
  6
CONTINUOUS
  10
-4.37307320458858
  20
-4.49656065085608
  30
0.0
  0
VERTEX
  8
0
 62
255
  6
CONTINUOUS
  10
-3.39238866118034
  20
-4.70350133335515
  30
0.0
  0
VERTEX
  8
0
 62
255
  6
CONTINUOUS
  10
-2.37326699871119
  20
-4.85714946632354
  30
0.0
  0
VERTEX
  8
0
 62
255
  6
CONTINUOUS
  10
-1.32725527283726
  20
-4.95576415502002
  30
0.0
  0
VERTEX
  8
0
 62
255
  6
CONTINUOUS
  10
-0.266205214377793
  20
-4.99822805561725
  30
0.0
  0
VERTEX
  8
0
 62
255
  6
CONTINUOUS
  10
0.797861055530782
  20
-4.98406003515374
  30
0.0
  0
VERTEX
  8
0
 62
255
  6
CONTINUOUS
  10
1.85288724087109
  20
-4.9134206229626
  30
0.0
  0
VERTEX
  8
0
 62
255
  6
CONTINUOUS
  10
2.88691947339616
  20
-4.78711019181003
  30
0.0
  0
VERTEX
  8
0
 62
255
  6
CONTINUOUS
  10
3.88824175473315
  20
-4.60655988935207
  30
0.0
  0
VERTEX
  8
0
 62
255
  6
CONTINUOUS
  10
4.84550870332645
  20
-4.37381542265981
  30
0.0
  0
VERTEX
  8
0
 62
255
  6
CONTINUOUS
  10
5.74787410214401
  20
-4.09151387954085
  30
0.0
  0
VERTEX
  8
0
 62
255
  6
CONTINUOUS
  10
6.58511379065033
  20
-3.7628538492807
  30
0.0
  0
VERTEX
  8
0
 62
255
  6
CONTINUOUS
  10
7.34774150863062
  20
-3.39155918134809
  30
0.0
  0
VERTEX
  8
0
 62
255
  6
CONTINUOUS
  10
8.02711637930959
  20
-2.98183679269252
  30
0.0
  0
VERTEX
  8
0
 62
255
  6
CONTINUOUS
  10
8.61554081393801
  20
-2.53832900169422
  30
0.0
  0
VERTEX
  8
0
 62
255
  6
CONTINUOUS
  10
9.10634772854909
  20
-2.06606092884191
  30
0.0
  0
VERTEX
  8
0
 62
255
  6
CONTINUOUS
  10
9.49397608468377
  20
-1.57038356010977
  30
0.0
  0
VERTEX
  8
0
 62
255
  6
CONTINUOUS
  10
9.77403389817863
  20
-1.05691311814815
  30
0.0
  0
VERTEX
  8
0
 62
255
  6
CONTINUOUS
  10
9.94334800210134
  20
-0.531467428236856
  30
0.0
  0
VERTEX
  8
0
 62
255
  6
CONTINUOUS
  10
9.99999999999998
  20
-0.0000000000000305
  30
0.0
  0
VERTEX
  8
0
 62
255
  6
CONTINUOUS
  10
10
  20
0.0
  30
0.0
  0
SEQEND
  0
SOLID
  8
0
 62
1
  6
CONTINUOUS
  10
0.0
  20
0.0
  30
0.0
  11
10
  21
0.0
  31
0.0
  12
10
  22
10
  32
0.0
  13
10
  23
0.0
  33
0.0
  0
POLYLINE
  8
0
 62
255
 70
    1
 66
    1
  0
VERTEX
  8
0
 62
255
  6
CONTINUOUS
  10
0.0
  20
0.0
  30
0.0
  0
VERTEX
  8
0
 62
255
  6
CONTINUOUS
  10
0.0
  20
5
  30
0.0
  0
VERTEX
  8
0
 62
255
  6
CONTINUOUS
  10
15
  20
5
  30
0.0
  0
VERTEX
  8
0
 62
255
  6
CONTINUOUS
  10
15
  20
0.0
  30
0.0
  0
SEQEND
  0
LINE
  8
0
 62
3
  6
CONTINUOUS
  10
0.0
  20
0.0
  30
0.0
  11
0.0
  21
10
  31
0.0
  0
LINE
  8
0
 62
3
  6
CONTINUOUS
  10
0.0
  20
10
  30
0.0
  11
13
  21
10
  31
0.0
  0
LINE
  8
0
 62
3
  6
CONTINUOUS
  10
13
  20
10
  30
0.0
  11
13
  21
0.0
  31
0.0
  0
LINE
  8
0
 62
3
  6
CONTINUOUS
  10
13
  20
0.0
  30
0.0
  11
0.0
  21
0.0
  31
0.0
  0
LINE
  8
0
 62
3
  6
CONTINUOUS
  10
12.6514660835045
  20
0.435667395619366
  30
0.0
  11
13
  21
1.18310079157625
  31
0.0
  0
LINE
  8
0
 62
3
  6
CONTINUOUS
  10
12.302932167009
  20
0.871334791238732
  30
0.0
  11
13
  21
2.3662015831525
  31
0.0
  0
LINE
  8
0
 62
3
  6
CONTINUOUS
  10
11.3449331215563
  20
0.0
  30
0.0
  11
11.3449331215563
  21
0.0
  31
0.0
  0
LINE
  8
0
 62
3
  6
CONTINUOUS
  10
11.9543982505135
  20
1.3070021868581
  30
0.0
  11
13
  21
3.54930237472874
  31
0.0
  0
LINE
  8
0
 62
3
  6
CONTINUOUS
  10
11.605864334018
  20
1.74266958247746
  30
0.0
  11
13
  21
4.73240316630499
  31
0.0
  0
LINE
  8
0
 62
3
  6
CONTINUOUS
  10
11.2573304175225
  20
2.17833697809683
  30
0.0
  11
13
  21
5.91550395788124
  31
0.0
  0
LINE
  8
0
 62
3
  6
CONTINUOUS
  10
10.908796501027
  20
2.61400437371619
  30
0.0
  11
13
  21
7.09860474945749
  31
0.0
  0
LINE
  8
0
 62
3
  6
CONTINUOUS
  10
9.13817728363127
  20
0.0
  30
0.0
  11
9.13817728363127
  21
0.0
  31
0.0
  0
LINE
  8
0
 62
3
  6
CONTINUOUS
  10
10.5602625845316
  20
3.04967176933556
  30
0.0
  11
13
  21
8.28170554103373
  31
0.0
  0
LINE
  8
0
 62
3
  6
CONTINUOUS
  10
10.2117286680361
  20
3.48533916495493
  30
0.0
  11
13
  21
9.46480633260998
  31
0.0
  0
LINE
  8
0
 62
3
  6
CONTINUOUS
  10
9.86319475154057
  20
3.92100656057429
  30
0.0
  11
12.6978759462188
  21
10
  31
0.0
  0
LINE
  8
0
 62
3
  6
CONTINUOUS
  10
7.48311040518753
  20
0.0
  30
0.0
  11
7.48311040518753
  21
0.0
  31
0.0
  0
LINE
  8
0
 62
3
  6
CONTINUOUS
  10
9.51466083504508
  20
4.35667395619366
  30
0.0
  11
12.1461869867375
  21
10
  31
0.0
  0
LINE
  8
0
 62
3
  6
CONTINUOUS
  10
9.16612691854958
  20
4.79234135181302
  30
0.0
  11
11.5944980272563
  21
10
  31
0.0
  0
LINE
  8
0
 62
3
  6
CONTINUOUS
  10
8.81759300205409
  20
5.22800874743239
  30
0.0
  11
11.042809067775
  21
10
  31
0.0
  0
LINE
  8
0
 62
3
  6
CONTINUOUS
  10
8.4690590855586
  20
5.66367614305175
  30
0.0
  11
10.4911201082938
  21
10
  31
0.0
  0
LINE
  8
0
 62
3
  6
CONTINUOUS
  10
8.12052516906311
  20
6.09934353867112
  30
0.0
  11
9.93943114881255
  21
10
  31
0.0
  0
LINE
  8
0
 62
3
  6
CONTINUOUS
  10
7.77199125256762
  20
6.53501093429048
  30
0.0
  11
9.3877421893313
  21
10
  31
0.0
  0
LINE
  8
0
 62
3
  6
CONTINUOUS
  10
7.42345733607212
  20
6.97067832990985
  30
0.0
  11
8.83605322985006
  21
10
  31
0.0
  0
LINE
  8
0
 62
3
  6
CONTINUOUS
  10
7.07492341957663
  20
7.40634572552921
  30
0.0
  11
8.28436427036881
  21
10
  31
0.0
  0
LINE
  8
0
 62
3
  6
CONTINUOUS
  10
6.72638950308114
  20
7.84201312114858
  30
0.0
  11
7.73267531088756
  21
10
  31
0.0
  0
LINE
  8
0
 62
3
  6
CONTINUOUS
  10
6.37785558658565
  20
8.27768051676794
  30
0.0
  11
7.18098635140632
  21
10
  31
0.0
  0
LINE
  8
0
 62
3
  6
CONTINUOUS
  10
1.96622081037507
  20
0.0
  30
0.0
  11
1.96622081037507
  21
0.0
  31
0.0
  0
LINE
  8
0
 62
3
  6
CONTINUOUS
  10
6.02932167009016
  20
8.71334791238731
  30
0.0
  11
6.62929739192507
  21
10
  31
0.0
  0
LINE
  8
0
 62
3
  6
CONTINUOUS
  10
5.68078775359466
  20
9.14901530800667
  30
0.0
  11
6.07760843244383
  21
10
  31
0.0
  0
LINE
  8
0
 62
3
  6
CONTINUOUS
  10
5.33225383709917
  20
9.58468270362604
  30
0.0
  11
5.52591947296258
  21
10
  31
0.0
  0
LINE
  8
0
 62
3
  6
CONTINUOUS
  10
4.96421975101347
  20
9.97853185060808
  30
0.0
  11
4.97423051348133
  21
10
  31
0.0
  0
LINE
  8
0
 62
3
  6
CONTINUOUS
  10
4.19821425381186
  20
9.51892855228711
  30
0.0
  11
4.42254155400009
  21
10
  31
0.0
  0
LINE
  8
0
 62
3
  6
CONTINUOUS
  10
3.43220875661025
  20
9.05932525396615
  30
0.0
  11
3.87085259451884
  21
10
  31
0.0
  0
LINE
  8
0
 62
3
  6
CONTINUOUS
  10
2.66620325940864
  20
8.59972195564518
  30
0.0
  11
3.3191636350376
  21
10
  31
0.0
  0
LINE
  8
0
 62
3
  6
CONTINUOUS
  10
0.0
  20
4.06513140593448
  30
0.0
  11
0.0
  21
4.06513140593448
  31
0.0
  0
LINE
  8
0
 62
3
  6
CONTINUOUS
  10
1.90019776220703
  20
8.14011865732422
  30
0.0
  11
2.76747467555635
  21
10
  31
0.0
  0
LINE
  8
0
 62
3
  6
CONTINUOUS
  10
1.13419226500542
  20
7.68051535900325
  30
0.0
  11
2.2157857160751
  21
10
  31
0.0
  0
LINE
  8
0
 62
3
  6
CONTINUOUS
  10
0.0
  20
6.43133298908697
  30
0.0
  11
0.0
  21
6.43133298908697
  31
0.0
  0
LINE
  8
0
 62
3
  6
CONTINUOUS
  10
0.368186767803808
  20
7.22091206068229
  30
0.0
  11
1.66409675659386
  21
10
  31
0.0
  0
LINE
  8
0
 62
3
  6
CONTINUOUS
  10
0.0
  20
7.61443378066322
  30
0.0
  11
1.11240779711261
  21
10
  31
0.0
  0
LINE
  8
0
 62
3
  6
CONTINUOUS
  10
0.0
  20
8.79753457223947
  30
0.0
  11
0.560718837631366
  21
10
  31
0.0
  0
LINE
  8
0
 62
3
  6
CONTINUOUS
  10
0.0
  20
9.98063536381571
  30
0.0
  11
0.0090298781501193
  21
10
  31
0.0
  0
POLYLINE
  8
0
 62
3
 70
    1
 66
    1
  0
VERTEX
  8
0
 62
3
  6
CONTINUOUS
  10
0.0
  20
0.0
  30
0.0
  0
VERTEX
  8
0
 62
3
  6
CONTINUOUS
  10
13
  20
0.0
  30
0.0
  0
VERTEX
  8
0
 62
3
  6
CONTINUOUS
  10
5
  20
10
  30
0.0
  0
VERTEX
  8
0
 62
3
  6
CONTINUOUS
  10
0.0
  20
7
  30
0.0
  0
SEQEND
  0
LINE
  8
0
 62
3
  6
CONTINUOUS
  10
9.29289321881345
  20
10.7071067811865
  30
0.0
  11
14.1161165235168
  21
15.5303300858899
  31
0.0
  0
LINE
  8
0
 62
3
  6
CONTINUOUS
  10
14.4696699141101
  20
15.8838834764832
  30
0.0
  11
19.2928932188135
  21
20.7071067811865
  31
0.0
  0
LINE
  8
0
 62
3
  6
CONTINUOUS
  10
9.29289321881345
  20
10.8071067811865
  30
0.0
  11
9.29289321881345
  21
10.6071067811865
  31
0.0
  0
LINE
  8
0
 62
3
  6
CONTINUOUS
  10
19.2928932188135
  20
20.8071067811865
  30
0.0
  11
19.2928932188135
  21
20.6071067811865
  31
0.0
  0
LINE
  8
0
 62
3
  6
CONTINUOUS
  10
9.2221825406948
  20
10.7778174593052
  30
0.0
  11
9.29289321881345
  21
10.7071067811865
  31
0.0
  0
LINE
  8
0
 62
3
  6
CONTINUOUS
  10
19.2221825406948
  20
20.7778174593052
  30
0.0
  11
19.2928932188135
  21
20.7071067811865
  31
0.0
  0
LINE
  8
0
 62
3
  6
CONTINUOUS
  10
9.43431457505076
  20
10.5656854249492
  30
0.0
  11
9.29289321881345
  21
10.7071067811865
  31
0.0
  0
LINE
  8
0
 62
3
  6
CONTINUOUS
  10
19.4343145750508
  20
20.5656854249492
  30
0.0
  11
19.2928932188135
  21
20.7071067811865
  31
0.0
  0
LINE
  8
0
 62
3
  6
CONTINUOUS
  10
9.50502525316942
  20
10.4949747468306
  30
0.0
  11
9.50502525316942
  21
10.4949747468306
  31
0.0
  0
LINE
  8
0
 62
3
  6
CONTINUOUS
  10
19.5050252531694
  20
20.4949747468306
  30
0.0
  11
19.5050252531694
  21
20.4949747468306
  31
0.0
  0
TEXT
  8
0
 62
3
  10
14.2575378797541
  20
15.6717514421272
  30
0.0
  40
0.2
  1
14,14
  50
45
  41
1
  7
STANDARD
  0
ARC
  8
0
 62
3
  6
CONTINUOUS
  10
10
  20
10
  30
0.0
  40
5.09901951359278
  50
0.0
  51
45.0000000000001
  0
CIRCLE
  8
0
 62
3
  6
CONTINUOUS
  10
15.0990195135928
  20
10
  30
0.0
  40
0.05
  0
CIRCLE
  8
0
 62
3
  6
CONTINUOUS
  10
13.605551275464
  20
13.605551275464
  30
0.0
  40
0.05
  0
TEXT
  8
0
 62
3
  10
15
  20
11
  30
0.0
  40
0.2
  1
45,00
  50
0.0
  41
1
  7
STANDARD
  0
ARC
  8
0
 62
3
  6
CONTINUOUS
  10
10
  20
10
  30
0.0
  40
2.23606797749979
  50
405
  51
0.0
  0
LINE
  8
0
 62
3
  6
CONTINUOUS
  10
11.5811388300842
  20
11.6811388300842
  30
0.0
  11
11.5811388300842
  21
11.5811388300842
  31
0.0
  0
LINE
  8
0
 62
3
  6
CONTINUOUS
  10
11.4811388300842
  20
11.5811388300842
  30
0.0
  11
11.5811388300842
  21
11.5811388300842
  31
0.0
  0
LINE
  8
0
 62
3
  6
CONTINUOUS
  10
12.3067786556184
  20
9.92928932188135
  30
0.0
  11
12.2360679774998
  21
10
  31
0.0
  0
LINE
  8
0
 62
3
  6
CONTINUOUS
  10
12.1653572993811
  20
9.92928932188135
  30
0.0
  11
12.2360679774998
  21
10
  31
0.0
  0
TEXT
  8
0
 62
3
  10
9
  20
8
  30
0.0
  40
0.2
  1
315,00
  50
0.0
  41
1
  7
STANDARD
  0
ARC
  8
0
 62
5
  6
CONTINUOUS
  10
10
  20
10
  30
0.0
  40
5
  50
45
  51
180
  0
LINE
  8
0
 62
1
  6
CONTINUOUS
  10
-24
  20
-24
  30
-24
  11
50
  21
-24
  31
24
  0
TEXT
  8
0
 62
1
  10
-24
  20
-28.2842105263158
  30
-24
  40
3.89473684210526
  1
DXFWriter.dll v.1.0
  50
0.0
  41
1
  7
STANDARD
  0
ENDSEC
  0
EOF
